<?xml version="1.0" encoding="UTF-8" standalone="no"?>
<!-- Created with Inkscape (http://www.inkscape.org/) -->

<svg
   xmlns:dc="http://purl.org/dc/elements/1.1/"
   xmlns:cc="http://creativecommons.org/ns#"
   xmlns:rdf="http://www.w3.org/1999/02/22-rdf-syntax-ns#"
   xmlns:svg="http://www.w3.org/2000/svg"
   xmlns="http://www.w3.org/2000/svg"
   xmlns:sodipodi="http://sodipodi.sourceforge.net/DTD/sodipodi-0.dtd"
   xmlns:inkscape="http://www.inkscape.org/namespaces/inkscape"
   width="210mm"
   height="297mm"
   viewBox="0 0 210 297"
   version="1.1"
   id="svg4644"
   inkscape:version="0.92.4 (5da689c313, 2019-01-14)"
   sodipodi:docname="tireur(3).svg">
  <defs
     id="defs4638">
    <inkscape:path-effect
       effect="spiro"
       id="path-effect4662"
       is_visible="true" />
  </defs>
  <sodipodi:namedview
     id="base"
     pagecolor="#ffffff"
     bordercolor="#666666"
     borderopacity="1.0"
     inkscape:pageopacity="0.0"
     inkscape:pageshadow="2"
     inkscape:zoom="0.7"
     inkscape:cx="228.4077"
     inkscape:cy="545.49557"
     inkscape:document-units="mm"
     inkscape:current-layer="layer1"
     showgrid="false"
     inkscape:window-width="1920"
     inkscape:window-height="986"
     inkscape:window-x="-11"
     inkscape:window-y="-11"
     inkscape:window-maximized="1" />
  <metadata
     id="metadata4641">
    <rdf:RDF>
      <cc:Work
         rdf:about="">
        <dc:format>image/svg+xml</dc:format>
        <dc:type
           rdf:resource="http://purl.org/dc/dcmitype/StillImage" />
        <dc:title></dc:title>
      </cc:Work>
    </rdf:RDF>
  </metadata>
  <g
     inkscape:label="Calque 1"
     inkscape:groupmode="layer"
     id="layer1">
    <path
       style="fill:#008000;fill-opacity:1;stroke:#000000;stroke-width:0.5217455;stroke-opacity:0.04845814"
       d="m 183.42453,223.35475 c -2.57271,25.52331 -27.36803,42.46181 -51.09606,46.13545 -29.38559,5.69874 -63.998674,2.34641 -85.968201,-19.96197 C 34.99706,238.28237 29.840461,219.02772 40.026768,205.33539 55.63932,182.60022 85.014163,174.03922 111.48,174.67498 c 22.27813,0.8529 45.69923,7.79357 61.62599,24.03571 5.91019,6.54089 10.21054,14.94695 10.31001,23.90912"
       id="path4668"
       inkscape:connector-curvature="0" />
    <path
       style="fill:#f4d7ee;fill-opacity:1;stroke:#000000;stroke-width:0.34298873;stroke-opacity:0.04845814"
       d="m 201.04427,115.25232 c 1.55627,43.29704 -33.79036,81.58066 -74.83769,90.85009 C 86.244424,215.75709 40.377759,197.20407 21.109767,160.24393 3.7452101,129.82069 4.1935225,88.858453 26.458662,60.953283 53.745451,22.976602 109.64532,11.828926 150.57512,33.218263 c 29.99368,14.894456 50.06635,47.189041 50.45814,80.626807"
       id="path4646"
       inkscape:connector-curvature="0" />
    <path
       style="fill:#ffaaaa;fill-opacity:1;stroke:#000000;stroke-width:0.24713856;stroke-opacity:0.04845814"
       d="M 106.94064,90.803391 C 107.44784,116.33382 74.020311,131.77236 53.539105,118.14763 34.781357,107.98016 32.145417,77.306119 50.651152,65.4833 70.688317,49.665488 107.29323,62.966286 106.93672,90.316673"
       id="path4648"
       inkscape:connector-curvature="0" />
    <path
       style="fill:#2b2200;fill-opacity:1;stroke:#000000;stroke-width:0.34298873;stroke-opacity:0.04845814"
       d="M 100.57873,93.612534 C 100.04357,111.79195 73.013155,118.1672 62.461147,104.48135 52.291982,93.08518 64.239167,73.50357 78.835777,75.33903 88.992681,75.050397 100.57521,82.246091 100.57632,93.336887"
       id="path4650"
       inkscape:connector-curvature="0" />
    <path
       style="fill:#ffaaaa;fill-opacity:1;stroke:#000000;stroke-width:0.19651999;stroke-opacity:0.04845814"
       d="m 178.58263,100.99043 c 0.48332,21.40098 -28.82658,33.44996 -44.73788,20.21991 -14.80468,-10.13202 -12.80117,-36.003506 4.1201,-42.949892 16.16682,-8.463374 41.06198,2.646069 40.61463,22.342632"
       id="path4654"
       inkscape:connector-curvature="0" />
    <path
       style="fill:#2b2200;fill-opacity:1;stroke:#000000;stroke-width:0.27273828;stroke-opacity:0.04845814"
       d="m 173.52795,103.2261 c -0.26563,16.52788 -27.67314,19.81364 -32.66577,4.43957 -4.73056,-14.022061 14.97476,-24.349134 25.77739,-16.498321 3.71506,2.784301 6.93352,6.988979 6.88647,11.839381"
       id="path4656"
       inkscape:connector-curvature="0" />
    <path
       style="fill:#800080;fill-opacity:1;stroke:#000000;stroke-width:0.34298873;stroke-opacity:0.04845814"
       d="m 148.45903,163.43095 c -24.59853,8.23108 -50.809148,2.8613 -76.10322,3.59375 -5.550892,0.23144 -12.044896,-6.93314 -2.238254,-5.88924 24.48519,-3.83125 49.539624,-2.61181 74.024204,0.3054 1.51095,0.452 2.97936,1.07205 4.31234,1.92116"
       id="path4666"
       inkscape:connector-curvature="0" />
  </g>
  <g
     inkscape:groupmode="layer"
     id="layer3"
     inkscape:label="Calque 2" />
</svg>
