<?xml version="1.0" encoding="UTF-8" standalone="no"?>
<!-- Created with Inkscape (http://www.inkscape.org/) -->

<svg
   xmlns:dc="http://purl.org/dc/elements/1.1/"
   xmlns:cc="http://creativecommons.org/ns#"
   xmlns:rdf="http://www.w3.org/1999/02/22-rdf-syntax-ns#"
   xmlns:svg="http://www.w3.org/2000/svg"
   xmlns="http://www.w3.org/2000/svg"
   xmlns:sodipodi="http://sodipodi.sourceforge.net/DTD/sodipodi-0.dtd"
   xmlns:inkscape="http://www.inkscape.org/namespaces/inkscape"
   version="1.1"
   inkscape:version="0.92.3 (2405546, 2018-03-11)"
   sodipodi:docname="arm.svg"
   id="svg9">
  <defs
     id="defs4671" />
  <sodipodi:namedview
     id="base"
     pagecolor="#ffffff"
     bordercolor="#666666"
     borderopacity="1.0"
     inkscape:pageopacity="0.0"
     inkscape:pageshadow="2"
     inkscape:zoom="11.2"
     inkscape:cx="22.375965"
     inkscape:cy="80.599988"
     inkscape:document-units="mm"
     inkscape:current-layer="main"
     showgrid="false"
     inkscape:window-width="1853"
     inkscape:window-height="1025"
     inkscape:window-x="67"
     inkscape:window-y="27"
     inkscape:window-maximized="1" />
  <metadata
     id="metadata4674">
    <rdf:RDF>
      <cc:Work
         rdf:about="">
        <dc:format>image/svg+xml</dc:format>
        <dc:type
           rdf:resource="http://purl.org/dc/dcmitype/StillImage" />
        <dc:title />
      </cc:Work>
    </rdf:RDF>
  </metadata>
  <g
     id="main"
     inkscape:label="#g16">
    <path
       inkscape:connector-curvature="0"
       id="rect4679"
       d="m 33.750706,6.6231227 c -11.884349,0 -23.7686985,0 -35.6530487,0 -2.6289406,-1.3886272 -2.0063908,-4.8409174 -2.1992297,-7.31845833 0.058321,-2.19510867 0.2176929,-6.00532937 3.21593727,-5.88349997 7.02438433,0.1061523 14.05967613,0.023768 21.08910313,0.049777 4.515747,0 9.031492,0 13.547238,0 2.64563,1.4037963 2.00313,4.8821183 2.196568,7.37643905 -0.07586,1.93787765 -0.155835,4.57081935 -1.945834,5.72252665 -0.08358,0.017726 -0.167155,0.035473 -0.250734,0.05321 z"
       style="fill:#008000;fill-opacity:1;stroke:#000000;stroke-width:0.04680571;stroke-opacity:0.04845814" />
    <path
       inkscape:connector-curvature="0"
       id="rect4683"
       d="m 48.949448,13.058807 c -5.808301,-0.08394 -11.616609,-0.167894 -17.424909,-0.251839 0.01991,-2.762897 0.03986,-5.5257943 0.05979,-8.288695 5.808305,0.083948 11.616609,0.1678937 17.424909,0.2518389 -0.01991,2.7628971 -0.03986,5.5257981 -0.05979,8.2886951 z"
       style="fill:#2b2200;fill-opacity:1;stroke:#000000;stroke-width:0.04205642;stroke-opacity:0.04845814" />
    <path
       inkscape:connector-curvature="0"
       id="path4681"
       d="m 36.643093,-6.5298238 c 4.79872,-0.2956204 8.525173,5.69221964 6.045775,9.8505838 -2.116287,4.2534183 -8.958515,4.8622066 -11.602133,0.8076854 -2.542902,-3.45122032 -0.863647,-9.2235139 3.423013,-10.3177144 0.654611,-0.2144793 1.341634,-0.3310913 2.030596,-0.3397848"
       style="fill:#ffaaee;fill-opacity:1;stroke:#000000;stroke-width:0.05002797;stroke-opacity:0.04845814" />
  </g>
</svg>
