<?xml version="1.0" encoding="UTF-8" standalone="no"?>
<!-- Created with Inkscape (http://www.inkscape.org/) -->

<svg
   xmlns:dc="http://purl.org/dc/elements/1.1/"
   xmlns:cc="http://creativecommons.org/ns#"
   xmlns:rdf="http://www.w3.org/1999/02/22-rdf-syntax-ns#"
   xmlns:svg="http://www.w3.org/2000/svg"
   xmlns="http://www.w3.org/2000/svg"
   xmlns:sodipodi="http://sodipodi.sourceforge.net/DTD/sodipodi-0.dtd"
   xmlns:inkscape="http://www.inkscape.org/namespaces/inkscape"
   width="210mm"
   height="110mm"
   viewBox="0 0 210 110"
   version="1.1"
   id="main"
   inkscape:version="0.92.4 (f8dce91, 2019-08-02)"
   sodipodi:docname="arm.svg">
  <defs
     id="defs4671" />
  <sodipodi:namedview
     id="base"
     pagecolor="#ffffff"
     bordercolor="#666666"
     borderopacity="1.0"
     inkscape:pageopacity="0.0"
     inkscape:pageshadow="2"
     inkscape:zoom="0.24748737"
     inkscape:cx="-210.89157"
     inkscape:cy="605.18924"
     inkscape:document-units="mm"
     inkscape:current-layer="layer1"
     showgrid="false"
     inkscape:window-width="1853"
     inkscape:window-height="1025"
     inkscape:window-x="67"
     inkscape:window-y="27"
     inkscape:window-maximized="1" />
  <metadata
     id="metadata4674">
    <rdf:RDF>
      <cc:Work
         rdf:about="">
        <dc:format>image/svg+xml</dc:format>
        <dc:type
           rdf:resource="http://purl.org/dc/dcmitype/StillImage" />
        <dc:title></dc:title>
      </cc:Work>
    </rdf:RDF>
  </metadata>
  <g
     inkscape:label="Calque 1"
     inkscape:groupmode="layer"
     id="layer1"
     transform="translate(0,-187)">
    <g
       id="g84"
       transform="matrix(0,-0.25790329,0.25790329,0,71.590634,225.7396)">
      <path
         inkscape:connector-curvature="0"
         id="rect4679"
         d="m 75.59523,205.30917 c 0,-62.84345 0,-125.686893 0,-188.530339 7.342962,-13.9016162 25.59838,-10.6096288 38.69941,-11.6293436 11.60755,0.3083868 31.75568,1.1511399 31.11144,17.0056066 -0.56131,37.144356 -0.12569,74.346389 -0.26323,111.517416 0,23.87889 0,47.75777 0,71.63666 -7.42317,13.98987 -25.81624,10.59239 -39.00599,11.61527 -10.247349,-0.40114 -24.170116,-0.82404 -30.260257,-10.28941 -0.09379,-0.44195 -0.187582,-0.88391 -0.281373,-1.32586 z"
         style="fill:#008000;fill-opacity:1;stroke:#000000;stroke-width:0.2475047;stroke-opacity:0.04845814" />
      <path
         inkscape:connector-curvature="0"
         id="rect4683"
         d="m 41.563883,285.67885 c 0.4439,-30.71382 0.8878,-61.42765 1.3317,-92.14147 14.609973,0.10539 29.219945,0.21079 43.829918,0.31618 -0.4439,30.71382 -0.887799,61.42765 -1.331699,92.14147 -14.609973,-0.10539 -29.219946,-0.21079 -43.829919,-0.31618 z"
         style="fill:#2b2200;fill-opacity:1;stroke:#000000;stroke-width:0.22239076;stroke-opacity:0.04845814" />
      <path
         inkscape:connector-curvature="0"
         id="path4681"
         d="m 145.14692,220.60388 c 1.56322,25.37523 -30.09999,45.0804 -52.089062,31.96955 -22.491723,-11.19076 -25.710942,-47.37188 -4.27097,-61.35112 18.249762,-13.44666 48.773172,-4.5669 54.559212,18.10061 1.13415,3.46152 1.75078,7.09445 1.79675,10.73763"
         style="fill:#ffaaee;fill-opacity:1;stroke:#000000;stroke-width:0.26454377;stroke-opacity:0.04845814" />
    </g>
  </g>
</svg>
