<?xml version="1.0" encoding="UTF-8" standalone="no"?>
<!-- Created with Inkscape (http://www.inkscape.org/) -->

<svg
   xmlns:dc="http://purl.org/dc/elements/1.1/"
   xmlns:cc="http://creativecommons.org/ns#"
   xmlns:rdf="http://www.w3.org/1999/02/22-rdf-syntax-ns#"
   xmlns:svg="http://www.w3.org/2000/svg"
   xmlns="http://www.w3.org/2000/svg"
   xmlns:sodipodi="http://sodipodi.sourceforge.net/DTD/sodipodi-0.dtd"
   xmlns:inkscape="http://www.inkscape.org/namespaces/inkscape"
   width="210mm"
   height="297mm"
   viewBox="0 0 210 297"
   version="1.1"
   id="svg8"
   inkscape:version="0.92.4 (f8dce91, 2019-08-02)"
   sodipodi:docname="pickup.svg">
  <defs
     id="defs2" />
  <sodipodi:namedview
     id="base"
     pagecolor="#ffffff"
     bordercolor="#666666"
     borderopacity="1.0"
     inkscape:pageopacity="0.0"
     inkscape:pageshadow="2"
     inkscape:zoom="0.49497475"
     inkscape:cx="-2.5785307"
     inkscape:cy="825.31253"
     inkscape:document-units="mm"
     inkscape:current-layer="arm"
     showgrid="true"
     inkscape:window-width="1853"
     inkscape:window-height="1025"
     inkscape:window-x="67"
     inkscape:window-y="27"
     inkscape:window-maximized="1">
    <inkscape:grid
       type="xygrid"
       id="grid3783" />
  </sodipodi:namedview>
  <metadata
     id="metadata5">
    <rdf:RDF>
      <cc:Work
         rdf:about="">
        <dc:format>image/svg+xml</dc:format>
        <dc:type
           rdf:resource="http://purl.org/dc/dcmitype/StillImage" />
        <dc:title />
      </cc:Work>
    </rdf:RDF>
  </metadata>
  <g
     id="main">
    <g
       inkscape:label="Calque 1"
       inkscape:groupmode="layer"
       id="layer1">
      <rect
         style="fill:#501616;stroke-width:0.16498376"
         id="rect20"
         width="15.141228"
         height="41.325485"
         x="-47.926857"
         y="-4.5151849"
         ry="7.5137248"
         transform="scale(-1)" />
      <rect
         ry="7.5137248"
         y="-4.5151849"
         x="30.996857"
         height="41.325485"
         width="15.141228"
         id="rect24"
         style="fill:#501616;stroke-width:0.16498376"
         transform="scale(-1)" />
      <rect
         ry="7.5137248"
         y="54.326412"
         x="-47.926857"
         height="41.325485"
         width="15.141228"
         id="rect26"
         style="fill:#501616;stroke-width:0.16498376"
         transform="scale(-1)" />
      <rect
         style="fill:#501616;stroke-width:0.16498376"
         id="rect28"
         width="15.141228"
         height="41.325485"
         x="30.996857"
         y="53.9977"
         ry="7.5137248"
         transform="scale(-1)" />
    </g>
    <g
       inkscape:groupmode="layer"
       id="layer2"
       inkscape:label="Calque 2">
      <rect
         id="rect16"
         width="75.706131"
         height="127.73332"
         x="-37.990433"
         y="-28.653017"
         style="fill:#ff0000;stroke-width:0.17674677"
         ry="24.25316"
         transform="scale(-1)" />
      <ellipse
         style="fill:#ffff00;stroke-width:0.13496876"
         id="path30"
         cy="63.159096"
         cx="-57.429821"
         rx="6.8501406"
         ry="8.4663382"
         transform="matrix(-0.89093607,0.45412875,-0.4595822,-0.88813524,0,0)" />
      <rect
         style="fill:#00ffff;stroke-width:0.16498376"
         id="rect39"
         width="63.877056"
         height="29.585291"
         x="-31.886604"
         y="42.069942"
         ry="14.792645"
         transform="scale(-1)" />
      <rect
         style="fill:#d40000;stroke-width:0.16498376"
         id="rect41"
         width="58.577652"
         height="30.242743"
         x="-29.473486"
         y="-15.034411"
         ry="3.7568622"
         rx="0"
         transform="scale(-1)" />
      <ellipse
         transform="matrix(0.89093607,0.45412875,0.4595822,-0.88813524,0,0)"
         ry="8.4663382"
         rx="6.8501406"
         cx="-57.816357"
         cy="62.962021"
         id="ellipse43"
         style="fill:#ffff00;stroke-width:0.13496876" />
      <g
         transform="matrix(0.30823854,0,0,0.30823854,-2.0481594,-8.6267643)"
         id="shooter"
         inkscape:label="#g3856">
        <path
           inkscape:connector-curvature="0"
           id="path4668"
           d="m 68.069198,7.953304 c -1.99293,19.771447 -21.200452,32.892737 -39.581202,35.738497 -22.7633359,4.41449 -49.576114,1.81763 -66.594651,-15.4634 -8.802428,-8.71152 -12.79695,-23.627 -4.906201,-34.233665 12.094152,-17.611637 34.8491641,-24.243354 55.350735,-23.750867 17.257593,0.660693 35.400582,6.037233 47.738133,18.619091 4.578286,5.066853 7.909526,11.57854695 7.986576,18.521028"
           style="fill:#008000;fill-opacity:1;stroke:#000000;stroke-width:0.4041664;stroke-opacity:0.04845814" />
        <path
           inkscape:connector-curvature="0"
           id="path4646"
           d="m 81.718198,-75.787469 c 1.20556,33.539742 -26.175458,63.195874 -57.97248,70.376372 -30.9563979,7.478928 -66.486681,-6.893036 -81.412493,-35.523943 -13.451329,-23.567145 -13.104048,-55.298249 4.143483,-76.91479 21.137516,-29.41837 64.439949,-38.05383 96.145927,-21.48474 23.234393,11.53789 38.783543,36.55466 39.087033,62.456985"
           style="fill:#f4d7ee;fill-opacity:1;stroke:#000000;stroke-width:0.26569375;stroke-opacity:0.04845814" />
        <path
           inkscape:connector-curvature="0"
           id="path4648"
           d="m 8.8214961,-94.726656 c 0.392899,19.776964 -25.5014971,31.736318 -41.3671161,21.182018 -14.530556,-7.876157 -16.572468,-31.637582 -2.237133,-40.796042 15.521647,-12.25316 43.8773801,-1.94979 43.6012121,19.236991"
           style="fill:#ffaaaa;fill-opacity:1;stroke:#000000;stroke-width:0.19144411;stroke-opacity:0.04845814" />
        <path
           inkscape:connector-curvature="0"
           id="path4650"
           d="m 3.8932881,-92.550574 c -0.414558,14.082554 -21.3534751,19.021096 -29.5275131,8.419451 -7.87747,-8.827962 1.377331,-23.996717 12.68449,-22.574887 7.8679731,-0.22359 16.8402961,5.3505 16.8411561,13.941908"
           style="fill:#2b2200;fill-opacity:1;stroke:#000000;stroke-width:0.26569375;stroke-opacity:0.04845814" />
        <path
           inkscape:connector-curvature="0"
           id="path4654"
           d="m 64.318452,-86.83534 c 0.374396,16.578116 -22.330304,25.911772 -34.65588,15.663209 -11.468339,-7.848697 -9.916335,-27.889858 3.191606,-33.270829 12.523513,-6.55609 31.80837,2.04976 31.461834,17.307562"
           style="fill:#ffaaaa;fill-opacity:1;stroke:#000000;stroke-width:0.1522328;stroke-opacity:0.04845814" />
        <path
           inkscape:connector-curvature="0"
           id="path4656"
           d="m 60.40288,-85.103494 c -0.205768,12.803204 -21.4368,15.348494 -25.304305,3.439081 -3.664496,-10.862089 11.600091,-18.861887 19.968271,-12.780306 2.877844,2.156839 5.371001,5.413963 5.334554,9.171292"
           style="fill:#2b2200;fill-opacity:1;stroke:#000000;stroke-width:0.21127476;stroke-opacity:0.04845814" />
        <path
           inkscape:connector-curvature="0"
           id="path4666"
           d="m 40.983421,-38.466238 c -19.055077,6.376147 -39.3589439,2.216485 -58.952816,2.783872 -4.299959,0.179284 -9.330492,-5.370707 -1.733847,-4.562057 18.9672771,-2.96785 38.375514,-2.02322 57.34232,0.236576 1.170447,0.350138 2.30794,0.830456 3.340524,1.488213"
           style="fill:#800080;fill-opacity:1;stroke:#000000;stroke-width:0.26569375;stroke-opacity:0.04845814" />
      </g>
      <g
         transform="matrix(0.15643485,0,0,0.15643485,-29.441891,-8.4921192)"
         id="arm"
         inkscape:label="#g4017">
        <path
           inkscape:connector-curvature="0"
           id="rect4679"
           d="m 75.59523,205.30917 c 0,-62.84345 0,-125.686893 0,-188.530339 7.342962,-13.9016162 25.59838,-10.6096288 38.69941,-11.6293436 11.60755,0.3083868 31.75568,1.1511399 31.11144,17.0056066 -0.56131,37.144356 -0.12569,74.346389 -0.26323,111.517416 0,23.87889 0,47.75777 0,71.63666 -7.42317,13.98987 -25.81624,10.59239 -39.00599,11.61527 -10.247349,-0.40114 -24.170116,-0.82404 -30.260257,-10.28941 -0.09379,-0.44195 -0.187582,-0.88391 -0.281373,-1.32586 z"
           style="fill:#225500;fill-opacity:1;stroke:#000000;stroke-width:0.2475047;stroke-opacity:0.04845814"
           inkscape:transform-center-x="80.180855"
           inkscape:transform-center-y="-20.312489" />
        <path
           inkscape:connector-curvature="0"
           id="rect4683"
           d="m 41.563883,285.67885 c 0.4439,-30.71382 0.8878,-61.42765 1.3317,-92.14147 14.609973,0.10539 29.219945,0.21079 43.829918,0.31618 -0.4439,30.71382 -0.887799,61.42765 -1.331699,92.14147 -14.609973,-0.10539 -29.219946,-0.21079 -43.829919,-0.31618 z"
           style="fill:#2b2200;fill-opacity:1;stroke:#000000;stroke-width:0.22239076;stroke-opacity:0.04845814" />
        <path
           inkscape:connector-curvature="0"
           id="path4681"
           d="m 145.14692,220.60388 c 1.56322,25.37523 -30.09999,45.0804 -52.089062,31.96955 -22.491723,-11.19076 -25.710942,-47.37188 -4.27097,-61.35112 18.249762,-13.44666 48.773172,-4.5669 54.559212,18.10061 1.13415,3.46152 1.75078,7.09445 1.79675,10.73763"
           style="fill:#ffaaee;fill-opacity:1;stroke:#000000;stroke-width:0.26454377;stroke-opacity:0.04845814" />
      </g>
    </g>
  </g>
</svg>
