<?xml version="1.0" encoding="UTF-8" standalone="no"?>
<!-- Created with Inkscape (http://www.inkscape.org/) -->

<svg
   xmlns:dc="http://purl.org/dc/elements/1.1/"
   xmlns:cc="http://creativecommons.org/ns#"
   xmlns:rdf="http://www.w3.org/1999/02/22-rdf-syntax-ns#"
   xmlns:svg="http://www.w3.org/2000/svg"
   xmlns="http://www.w3.org/2000/svg"
   xmlns:sodipodi="http://sodipodi.sourceforge.net/DTD/sodipodi-0.dtd"
   xmlns:inkscape="http://www.inkscape.org/namespaces/inkscape"
   width="210mm"
   height="297mm"
   viewBox="0 0 210 297"
   version="1.1"
   id="main"
   inkscape:version="0.92.4 (5da689c313, 2019-01-14)"
   sodipodi:docname="zombie(2).svg">
  <defs
     id="defs45">
    <inkscape:path-effect
       is_visible="true"
       id="path-effect4594"
       effect="spiro" />
    <inkscape:path-effect
       effect="spiro"
       id="path-effect79"
       is_visible="true" />
  </defs>
  <sodipodi:namedview
     id="base"
     pagecolor="#ffffff"
     bordercolor="#666666"
     borderopacity="1.0"
     inkscape:pageopacity="0.0"
     inkscape:pageshadow="2"
     inkscape:zoom="0.35"
     inkscape:cx="-390.00051"
     inkscape:cy="1110.3399"
     inkscape:document-units="mm"
     inkscape:current-layer="layer1"
     showgrid="false"
     inkscape:window-width="1920"
     inkscape:window-height="986"
     inkscape:window-x="-11"
     inkscape:window-y="-11"
     inkscape:window-maximized="1" />
  <metadata
     id="metadata48">
    <rdf:RDF>
      <cc:Work
         rdf:about="">
        <dc:format>image/svg+xml</dc:format>
        <dc:type
           rdf:resource="http://purl.org/dc/dcmitype/StillImage" />
        <dc:title></dc:title>
      </cc:Work>
    </rdf:RDF>
  </metadata>
  <g
     inkscape:label="Calque 1"
     inkscape:groupmode="layer"
     id="layer1">
    <path
       style="fill:#abc837;stroke-width:0.21541852"
       d="m 193.25586,133.61477 c 6.08039,33.65607 -12.56991,68.07486 -40.63351,86.17391 -19.28264,12.96939 -43.6434,18.20091 -66.465976,13.4213 -46.68435,-6.432 -80.7125889,-56.20159 -72.449062,-102.06612 4.739952,-23.64851 18.872431,-45.802278 39.588787,-58.544522 33.482717,-21.326759 81.651591,-20.186533 111.190971,7.64326 15.12746,13.382871 25.56017,32.040492 28.57426,52.048282"
       id="path61"
       inkscape:connector-curvature="0" />
    <path
       style="fill:#ffeeaa;stroke-width:0.26458332"
       d="m 112.0666,131.54543 c 3.11515,19.97981 -19.513294,36.33694 -38.003688,30.98276 -17.93188,-2.53688 -28.935225,-26.44537 -17.424337,-41.06172 11.927641,-19.12897 45.823785,-17.42957 53.921825,4.32831 0.67397,1.71954 1.1611,3.51256 1.44528,5.3376"
       id="path63"
       inkscape:connector-curvature="0" />
    <path
       style="fill:#28170b;stroke-width:0.24649234"
       d="m 104.94378,137.95454 c 2.6706,13.75594 -14.942388,25.09899 -26.573965,17.56733 -11.760027,-5.85808 -11.39541,-25.20589 0.705991,-30.53199 9.996671,-5.54941 24.517884,1.03519 25.829724,12.70435"
       id="path65"
       inkscape:connector-curvature="0" />
    <path
       style="fill:#ffe6d5;stroke-width:0.15667474"
       d="m 82.667527,134.18243 c 1.707284,12.18309 -19.952423,14.48794 -20.32221,1.90075 0.01775,-9.78603 14.911075,-13.32635 19.419845,-4.65634 l 0.554183,1.26057 0.328125,1.35922"
       id="path67"
       inkscape:connector-curvature="0" />
    <path
       style="fill:#ffeeaa;stroke-width:0.24403203"
       d="m 172.091,135.64128 c 3.30536,18.75931 -18.13611,35.02911 -35.59493,28.66545 -16.46743,-4.19218 -24.49855,-26.77426 -13.41826,-40.0314 11.22092,-16.33054 40.34365,-13.8286 47.33915,5.21715 0.76513,1.84607 1.31128,3.78329 1.61661,5.75836"
       id="path69"
       inkscape:connector-curvature="0" />
    <path
       style="fill:#28170b;stroke-width:0.22734626"
       d="m 165.71387,141.64979 c 2.66534,12.40946 -12.79924,23.50745 -23.59885,16.60154 -11.30395,-5.93362 -10.70509,-25.22014 1.62914,-29.66023 9.2105,-4.12665 20.88225,2.85909 21.93365,12.81263"
       id="path71"
       inkscape:connector-curvature="0" />
    <path
       style="fill:#ffe6d5;stroke-width:0.14450516"
       d="m 145.62288,137.95026 c 1.82001,10.92587 -17.10346,13.68534 -18.26256,2.4732 -1.11247,-9.48346 13.34523,-13.72073 17.45404,-5.0396 l 0.49491,1.17917 0.29471,1.25887"
       id="path73"
       inkscape:connector-curvature="0" />
    <path
       style="fill:#008000;fill-opacity:1;stroke:#000000;stroke-width:0.44044214;stroke-opacity:0.04845814"
       d="m 62.965345,201.71904 c 2.946896,17.24179 -16.830539,31.8592 -32.787188,26.14141 -15.062564,-3.69197 -22.5549582,-24.36438 -12.293388,-36.40958 10.375585,-14.84247 36.979888,-12.72364 43.548379,4.67417 0.701392,1.67831 1.201738,3.44106 1.479924,5.23883"
       id="path4606"
       inkscape:connector-curvature="0" />
    <path
       style="fill:#008000;fill-opacity:1;stroke:#000000;stroke-width:0.44044214;stroke-opacity:0.04845814"
       d="m 203.0576,204.75827 c 2.94689,17.24178 -16.83054,31.85919 -32.78719,26.1414 -15.06256,-3.69197 -22.55496,-24.36438 -12.29338,-36.40958 10.37558,-14.84247 36.97988,-12.72364 43.54837,4.67417 0.7014,1.67831 1.20175,3.44106 1.47993,5.23883"
       id="path4608"
       inkscape:connector-curvature="0" />
    <path
       style="fill:#800080;fill-opacity:1;stroke:#000000;stroke-width:0.29885933;stroke-opacity:0.04845814"
       id="path4634"
       sodipodi:type="arc"
       sodipodi:cx="112.50228"
       sodipodi:cy="194.90305"
       sodipodi:rx="22.165192"
       sodipodi:ry="16.570711"
       sodipodi:start="0"
       sodipodi:end="6.2680533"
       sodipodi:open="true"
       d="m 134.66747,194.90305 a 22.165192,16.570711 0 0 1 -22.08134,16.57059 22.165192,16.570711 0 0 1 -22.248406,-16.44522 22.165192,16.570711 0 0 1 21.913006,-16.69502 22.165192,16.570711 0 0 1 22.41421,16.31891" />
    <rect
       style="fill:#ffdd55;fill-opacity:1;stroke:#000000;stroke-width:0.15320346;stroke-opacity:0.04845814"
       id="rect4636"
       width="12.907897"
       height="6.7092686"
       x="105.96462"
       y="178.05524"
       rx="2.2631774"
       ry="3.2837636" />
  </g>
</svg>
